# Blender v3.1.2 OBJ File: ''
# www.blender.org
mtllib WiFi.mtl
o Circle_Circle.001
v 0.000000 -0.334871 0.039674
v -0.100622 -0.350808 0.039674
v -0.191395 -0.397059 0.039674
v -0.263433 -0.469097 0.039674
v -0.309684 -0.559870 0.039674
v -0.325621 -0.660492 0.039674
v -0.309684 -0.761115 0.039674
v -0.263433 -0.851887 0.039674
v -0.191395 -0.923925 0.039674
v -0.100622 -0.970176 0.039674
v 0.000000 -0.986113 0.039674
v 0.100622 -0.970176 0.039674
v 0.191395 -0.923925 0.039674
v 0.263433 -0.851887 0.039674
v 0.309684 -0.761115 0.039674
v 0.325621 -0.660492 0.039674
v 0.309684 -0.559870 0.039674
v 0.263433 -0.469097 0.039674
v 0.191395 -0.397059 0.039674
v 0.100622 -0.350808 0.039674
v -0.100622 -0.350808 0.077986
v 0.000000 -0.334871 0.077986
v -0.191395 -0.397059 0.077986
v -0.263433 -0.469097 0.077986
v -0.309684 -0.559870 0.077986
v -0.325621 -0.660492 0.077986
v -0.309684 -0.761115 0.077986
v -0.263433 -0.851887 0.077986
v -0.191395 -0.923925 0.077986
v -0.100622 -0.970176 0.077986
v 0.000000 -0.986113 0.077986
v 0.100622 -0.970176 0.077986
v 0.191395 -0.923925 0.077986
v 0.263433 -0.851887 0.077986
v 0.309684 -0.761115 0.077986
v 0.325621 -0.660492 0.077986
v 0.309684 -0.559870 0.077986
v 0.263433 -0.469097 0.077986
v 0.191395 -0.397059 0.077986
v 0.100622 -0.350808 0.077986
v -0.165869 -0.187053 0.027252
v 0.000000 -0.160782 0.027252
v -0.315501 -0.263294 0.027252
v -0.434250 -0.382043 0.027252
v -0.510492 -0.531676 0.027252
v 0.434250 -0.382044 0.027252
v 0.510492 -0.531676 0.027252
v 0.315501 -0.263294 0.027252
v 0.165869 -0.187053 0.027252
v -0.165869 -0.187053 0.090408
v 0.000000 -0.160782 0.090408
v -0.315501 -0.263294 0.090408
v -0.434250 -0.382043 0.090408
v -0.510492 -0.531676 0.090408
v 0.434250 -0.382044 0.090408
v 0.510492 -0.531676 0.090408
v 0.315501 -0.263294 0.090408
v 0.165869 -0.187053 0.090408
v -0.219903 0.038586 0.016965
v 0.000000 0.070244 0.016965
v -0.418280 -0.053287 0.016965
v -0.575714 -0.196384 0.016965
v -0.676792 -0.376696 0.016965
v 0.575714 -0.196384 0.016965
v 0.676792 -0.376695 0.016965
v 0.418281 -0.053287 0.016965
v 0.219903 0.038586 0.016965
v -0.219903 0.038586 0.100695
v 0.000000 0.070244 0.100695
v -0.418280 -0.053287 0.100695
v -0.575714 -0.196384 0.100695
v -0.676792 -0.376696 0.100695
v 0.575714 -0.196384 0.100695
v 0.676792 -0.376695 0.100695
v 0.418281 -0.053287 0.100695
v 0.219903 0.038586 0.100695
v -0.271461 0.282279 0.007150
v -0.000000 0.321359 0.007150
v -0.516350 0.168865 0.007150
v -0.710695 -0.007782 0.007150
v -0.835472 -0.230369 0.007150
v 0.710695 -0.007782 0.007150
v 0.835472 -0.230369 0.007150
v 0.516350 0.168865 0.007150
v 0.271461 0.282279 0.007150
v -0.271461 0.282279 0.110510
v -0.000000 0.321359 0.110510
v -0.516350 0.168865 0.110510
v -0.710695 -0.007782 0.110510
v -0.835472 -0.230369 0.110510
v 0.710695 -0.007782 0.110510
v 0.835472 -0.230369 0.110510
v 0.516350 0.168865 0.110510
v 0.271461 0.282279 0.110510
v -0.340672 0.627401 -0.006026
v -0.000000 0.676445 -0.006026
v -0.647997 0.485071 -0.006026
v -0.891892 0.263387 -0.006026
v -1.048482 -0.015951 -0.006026
v 0.891892 0.263387 -0.006026
v 1.048482 -0.015951 -0.006026
v 0.647997 0.485071 -0.006026
v 0.340672 0.627401 -0.006026
v -0.340672 0.627401 0.123687
v -0.000000 0.676445 0.123687
v -0.647997 0.485071 0.123687
v -0.891892 0.263387 0.123687
v -1.048482 -0.015951 0.123687
v 0.891892 0.263387 0.123687
v 1.048482 -0.015951 0.123687
v 0.647997 0.485071 0.123687
v 0.340672 0.627401 0.123687
v -0.398253 0.909061 -0.016988
v -0.000000 0.966394 -0.016988
v -0.757522 0.742675 -0.016988
v -1.042639 0.483522 -0.016988
v -1.225696 0.156970 -0.016988
v 1.042639 0.483522 -0.016988
v 1.225696 0.156970 -0.016988
v 0.757522 0.742675 -0.016988
v 0.398252 0.909061 -0.016988
v -0.398253 0.909061 0.134649
v -0.000000 0.966394 0.134649
v -0.757522 0.742675 0.134649
v -1.042639 0.483522 0.134649
v -1.225696 0.156970 0.134649
v 1.042639 0.483522 0.134649
v 1.225696 0.156970 0.134649
v 0.757522 0.742675 0.134649
v 0.398252 0.909061 0.134649
v -0.484136 1.315956 -0.033339
v -0.000000 1.385653 -0.033339
v -0.920881 1.113689 -0.033339
v -1.267484 0.798650 -0.033339
v -1.490016 0.401677 -0.033339
v 1.267484 0.798650 -0.033339
v 1.490016 0.401678 -0.033339
v 0.920881 1.113689 -0.033339
v 0.484135 1.315956 -0.033339
v -0.484136 1.315956 0.150999
v -0.000000 1.385653 0.150999
v -0.920881 1.113689 0.150999
v -1.267484 0.798650 0.150999
v -1.490016 0.401677 0.150999
v 1.267484 0.798650 0.150999
v 1.490016 0.401678 0.150999
v 0.920881 1.113689 0.150999
v 0.484135 1.315956 0.150999
vt 0.000000 0.000000
vt 0.000000 0.000000
vt 0.000000 0.000000
vt 0.000000 0.000000
vt 0.000000 0.000000
vt 0.000000 0.000000
vt 0.000000 0.000000
vt 0.000000 0.000000
vt 0.000000 0.000000
vt 0.000000 0.000000
vt 0.000000 0.000000
vt 0.000000 0.000000
vt 0.000000 0.000000
vt 0.000000 0.000000
vt 0.000000 0.000000
vt 0.000000 0.000000
vt 0.000000 0.000000
vt 0.000000 0.000000
vt 0.000000 0.000000
vt 0.000000 0.000000
vt 0.000000 0.000000
vt 0.000000 0.000000
vt 0.000000 0.000000
vt 0.000000 0.000000
vt 0.000000 0.000000
vt 0.000000 0.000000
vt 0.000000 0.000000
vt 0.000000 0.000000
vt 0.000000 0.000000
vt 0.000000 0.000000
vt 0.000000 0.000000
vt 0.000000 0.000000
vt 0.000000 0.000000
vt 0.000000 0.000000
vt 0.000000 0.000000
vt 0.000000 0.000000
vt 0.000000 0.000000
vt 0.000000 0.000000
vt 0.000000 0.000000
vt 0.000000 0.000000
vt 0.000000 0.000000
vt 0.000000 0.000000
vt 0.000000 0.000000
vt 0.000000 0.000000
vt 0.000000 0.000000
vt 0.000000 0.000000
vt 0.000000 0.000000
vt 0.000000 0.000000
vt 0.000000 0.000000
vt 0.000000 0.000000
vt 0.000000 0.000000
vt 0.000000 0.000000
vt 0.000000 0.000000
vt 0.000000 0.000000
vt 0.000000 0.000000
vt 0.000000 0.000000
vt 0.000000 0.000000
vt 0.000000 0.000000
vt 0.000000 0.000000
vt 0.000000 0.000000
vt 0.000000 0.000000
vt 0.000000 0.000000
vt 0.000000 0.000000
vt 0.000000 0.000000
vt 0.000000 0.000000
vt 0.000000 0.000000
vt 0.000000 0.000000
vt 0.000000 0.000000
vt 0.000000 0.000000
vt 0.000000 0.000000
vt 0.000000 0.000000
vt 0.000000 0.000000
vt 0.000000 0.000000
vt 0.000000 0.000000
vt 0.000000 0.000000
vt 0.000000 0.000000
vt 0.000000 0.000000
vt 0.000000 0.000000
vt 0.000000 0.000000
vt 0.000000 0.000000
vt 0.000000 0.000000
vt 0.000000 0.000000
vt 0.000000 0.000000
vt 0.000000 0.000000
vt 0.000000 0.000000
vt 0.000000 0.000000
vt 0.000000 0.000000
vt 0.000000 0.000000
vt 0.000000 0.000000
vt 0.000000 0.000000
vt 0.000000 0.000000
vt 0.000000 0.000000
vt 0.000000 0.000000
vt 0.000000 0.000000
vt 0.000000 0.000000
vt 0.000000 0.000000
vt 0.000000 0.000000
vt 0.000000 0.000000
vt 0.000000 0.000000
vt 0.000000 0.000000
vt 0.000000 0.000000
vt 0.000000 0.000000
vt 0.000000 0.000000
vt 0.000000 0.000000
vt 0.000000 0.000000
vt 0.000000 0.000000
vt 0.000000 0.000000
vt 0.000000 0.000000
vt 0.000000 0.000000
vt 0.000000 0.000000
vt 0.000000 0.000000
vt 0.000000 0.000000
vt 0.000000 0.000000
vt 0.000000 0.000000
vt 0.000000 0.000000
vt 0.000000 0.000000
vt 0.000000 0.000000
vt 0.000000 0.000000
vt 0.000000 0.000000
vt 0.000000 0.000000
vt 0.000000 0.000000
vt 0.000000 0.000000
vt 0.000000 0.000000
vt 0.000000 0.000000
vt 0.000000 0.000000
vt 0.000000 0.000000
vt 0.000000 0.000000
vt 0.000000 0.000000
vt 0.000000 0.000000
vt 0.000000 0.000000
vt 0.000000 0.000000
vt 0.000000 0.000000
vt 0.000000 0.000000
vt 0.000000 0.000000
vt 0.000000 0.000000
vt 0.000000 0.000000
vt 0.000000 0.000000
vt 0.000000 0.000000
vt 0.000000 0.000000
vt 0.000000 0.000000
vt 0.000000 0.000000
vt 0.000000 0.000000
vt 0.000000 0.000000
vt 0.000000 0.000000
vt 0.000000 0.000000
vt 0.000000 0.000000
vt 0.000000 0.000000
vt 0.000000 0.000000
vn -0.0000 0.0000 -1.0000
vn 0.0000 -0.0000 1.0000
vn 0.9877 0.1564 0.0000
vn -0.4540 -0.8910 0.0000
vn -0.1564 -0.9877 0.0000
vn 0.1564 -0.9877 0.0000
vn 0.4540 -0.8910 0.0000
vn -0.9877 0.1564 0.0000
vn 0.7071 -0.7071 0.0000
vn -0.9877 -0.1564 0.0000
vn 0.8910 -0.4540 0.0000
vn -0.8910 -0.4540 0.0000
vn 0.9877 -0.1564 0.0000
vn -0.7071 -0.7071 0.0000
vn 0.0200 -0.0392 0.9990
vn 0.0190 -0.0410 -0.9990
vn -0.6818 -0.7316 0.0000
vn 0.0070 -0.0439 0.9990
vn -0.0064 -0.0445 0.9990
vn 0.0064 -0.0445 -0.9990
vn -0.0070 -0.0439 -0.9990
vn -0.0190 -0.0410 0.9990
vn 0.0308 -0.0339 -0.9990
vn 0.0314 -0.0314 0.9990
vn 0.0418 -0.0235 -0.9988
vn 0.6818 -0.7316 0.0000
vn 0.0419 -0.0213 0.9989
vn -0.0419 -0.0213 -0.9989
vn -0.0418 -0.0235 0.9988
vn -0.0314 -0.0314 -0.9990
vn -0.0308 -0.0339 0.9990
vn -0.0200 -0.0392 -0.9990
vn 0.0395 -0.0221 0.9990
vn 0.7094 -0.7048 0.0000
vn 0.0395 -0.0221 -0.9990
vn 0.0275 -0.0302 0.9992
vn 0.0275 -0.0302 -0.9992
vn 0.0162 -0.0349 0.9993
vn 0.0162 -0.0349 -0.9993
vn -0.7094 -0.7048 0.0000
vn -0.0395 -0.0221 -0.9990
vn -0.0395 -0.0221 0.9990
vn -0.0275 -0.0302 -0.9992
vn -0.0275 -0.0302 0.9992
vn -0.0162 -0.0349 -0.9993
vn -0.0162 -0.0349 0.9993
vn -0.0053 -0.0371 -0.9993
vn 0.0053 -0.0371 -0.9993
vn -0.0053 -0.0371 0.9993
vn 0.0053 -0.0371 0.9993
vn -0.6794 -0.7338 0.0000
vn 0.0056 -0.0390 0.9992
vn -0.0056 -0.0390 0.9992
vn 0.0056 -0.0390 -0.9992
vn -0.0056 -0.0390 -0.9992
vn -0.0169 -0.0366 0.9992
vn -0.0169 -0.0366 -0.9992
vn -0.0286 -0.0314 0.9991
vn -0.1425 0.9898 0.0000
vn -0.4202 0.9074 0.0000
vn 0.8723 0.4890 0.0000
vn -0.6726 0.7400 0.0000
vn 0.6726 0.7400 0.0000
vn -0.8723 0.4890 0.0000
vn 0.4202 0.9074 0.0000
vn 0.1425 0.9898 0.0000
vn 0.0169 -0.0366 -0.9992
vn 0.0169 -0.0366 0.9992
vn 0.0286 -0.0314 -0.9991
vn 0.0286 -0.0314 0.9991
vn 0.0407 -0.0228 -0.9989
vn 0.6794 -0.7338 0.0000
vn 0.0407 -0.0228 0.9989
vn -0.0407 -0.0228 -0.9989
vn -0.0407 -0.0228 0.9989
vn -0.0286 -0.0314 -0.9991
vn 0.0190 -0.0410 0.9990
vn 0.0200 -0.0392 -0.9990
vn 0.0064 -0.0445 0.9990
vn -0.0070 -0.0439 0.9990
vn 0.0070 -0.0439 -0.9990
vn -0.0064 -0.0445 -0.9990
vn -0.0200 -0.0392 0.9990
vn 0.0314 -0.0314 -0.9990
vn 0.0308 -0.0339 0.9990
vn 0.0419 -0.0213 -0.9989
vn 0.0418 -0.0235 0.9988
vn -0.0418 -0.0235 -0.9988
vn -0.0419 -0.0213 0.9989
vn -0.0308 -0.0339 -0.9990
vn -0.0314 -0.0314 0.9990
vn -0.0190 -0.0410 -0.9990
usemtl None
s off
f 11/1/1 7/2/1 3/3/1
f 29/4/2 33/5/2 37/6/2
f 17/7/3 36/8/3 16/9/3
f 10/10/4 29/4/4 9/11/4
f 11/1/5 30/12/5 10/10/5
f 12/13/6 31/14/6 11/1/6
f 13/15/7 32/16/7 12/13/7
f 6/17/8 25/18/8 5/19/8
f 14/20/9 33/5/9 13/15/9
f 7/2/10 26/21/10 6/17/10
f 15/22/11 34/23/11 14/20/11
f 8/24/12 27/25/12 7/2/12
f 16/9/13 35/26/13 15/22/13
f 9/11/14 28/27/14 8/24/14
f 50/28/15 70/29/15 52/30/15
f 41/31/16 61/32/16 59/33/16
f 54/34/17 63/35/17 45/36/17
f 51/37/18 68/38/18 50/28/18
f 51/37/19 76/39/19 69/40/19
f 42/41/20 59/33/20 60/42/20
f 42/41/21 67/43/21 49/44/21
f 58/45/22 75/46/22 76/39/22
f 43/47/23 62/48/23 61/32/23
f 52/30/24 71/49/24 53/50/24
f 44/51/25 63/35/25 62/48/25
f 47/52/26 74/53/26 56/54/26
f 53/50/27 72/55/27 54/34/27
f 46/56/28 65/57/28 47/52/28
f 55/58/29 74/53/29 73/59/29
f 48/60/30 64/61/30 46/56/30
f 57/62/31 73/59/31 75/46/31
f 49/44/32 66/63/32 48/60/32
f 89/64/33 108/65/33 90/66/33
f 83/67/34 110/68/34 92/69/34
f 80/70/35 99/71/35 98/72/35
f 88/73/36 107/74/36 89/64/36
f 79/75/37 98/72/37 97/76/37
f 86/77/38 106/78/38 88/73/38
f 77/79/39 97/76/39 95/80/39
f 90/66/40 99/71/40 81/81/40
f 22/82/2 21/83/2 23/84/2
f 15/22/1 11/1/1 3/3/1
f 3/3/1 19/85/1 15/22/1
f 5/19/1 4/86/1 3/3/1
f 6/17/1 5/19/1 3/3/1
f 7/2/1 6/17/1 3/3/1
f 9/11/1 8/24/1 7/2/1
f 10/10/1 9/11/1 7/2/1
f 82/87/41 101/88/41 83/67/41
f 91/89/42 110/68/42 109/90/42
f 84/91/43 100/92/43 82/87/43
f 93/93/44 109/90/44 111/94/44
f 85/95/45 102/96/45 84/91/45
f 94/97/46 111/94/46 112/98/46
f 78/99/47 103/100/47 85/95/47
f 78/99/48 95/80/48 96/101/48
f 87/102/49 112/98/49 105/103/49
f 87/102/50 104/104/50 86/77/50
f 126/105/51 135/106/51 117/107/51
f 123/108/52 140/109/52 122/110/52
f 123/108/53 148/111/53 141/112/53
f 114/113/54 131/114/54 132/115/54
f 114/113/55 139/116/55 121/117/55
f 130/118/56 147/119/56 148/111/56
f 121/117/57 138/120/57 120/121/57
f 129/122/58 145/123/58 147/119/58
f 11/1/1 10/10/1 7/2/1
f 12/13/1 11/1/1 15/22/1
f 13/15/1 12/13/1 15/22/1
f 15/22/1 14/20/1 13/15/1
f 16/9/1 15/22/1 19/85/1
f 17/7/1 16/9/1 19/85/1
f 19/85/1 18/124/1 17/7/1
f 1/125/1 20/126/1 19/85/1
f 2/127/1 1/125/1 19/85/1
f 3/3/1 2/127/1 19/85/1
f 131/114/59 141/112/59 132/115/59
f 133/128/60 140/109/60 131/114/60
f 136/129/61 146/130/61 137/131/61
f 134/132/62 142/133/62 133/128/62
f 138/120/63 145/123/63 136/129/63
f 135/106/64 143/134/64 134/132/64
f 139/116/65 147/119/65 138/120/65
f 132/115/66 148/111/66 139/116/66
f 113/135/67 133/128/67 131/114/67
f 122/110/68 142/133/68 124/136/68
f 115/137/69 134/132/69 133/128/69
f 124/136/70 143/134/70 125/138/70
f 116/139/71 135/106/71 134/132/71
f 119/140/72 146/130/72 128/141/72
f 125/138/73 144/142/73 126/105/73
f 118/143/74 137/131/74 119/140/74
f 127/144/75 146/130/75 145/123/75
f 120/121/76 136/129/76 118/143/76
f 23/84/2 24/145/2 22/82/2
f 24/145/2 25/18/2 22/82/2
f 25/18/2 26/21/2 29/4/2
f 26/21/2 27/25/2 29/4/2
f 27/25/2 28/27/2 29/4/2
f 29/4/2 30/12/2 33/5/2
f 30/12/2 31/14/2 33/5/2
f 31/14/2 32/16/2 33/5/2
f 33/5/2 34/23/2 37/6/2
f 34/23/2 35/26/2 37/6/2
f 35/26/2 36/8/2 37/6/2
f 37/6/2 38/146/2 39/147/2
f 39/147/2 40/148/2 22/82/2
f 37/6/2 39/147/2 29/4/2
f 39/147/2 22/82/2 29/4/2
f 22/82/2 25/18/2 29/4/2
f 17/7/3 37/6/3 36/8/3
f 10/10/4 30/12/4 29/4/4
f 11/1/5 31/14/5 30/12/5
f 12/13/6 32/16/6 31/14/6
f 13/15/7 33/5/7 32/16/7
f 6/17/8 26/21/8 25/18/8
f 14/20/9 34/23/9 33/5/9
f 7/2/10 27/25/10 26/21/10
f 15/22/11 35/26/11 34/23/11
f 8/24/12 28/27/12 27/25/12
f 16/9/13 36/8/13 35/26/13
f 9/11/14 29/4/14 28/27/14
f 50/28/77 68/38/77 70/29/77
f 41/31/78 43/47/78 61/32/78
f 54/34/17 72/55/17 63/35/17
f 51/37/79 69/40/79 68/38/79
f 51/37/80 58/45/80 76/39/80
f 42/41/81 41/31/81 59/33/81
f 42/41/82 60/42/82 67/43/82
f 58/45/83 57/62/83 75/46/83
f 43/47/84 44/51/84 62/48/84
f 52/30/85 70/29/85 71/49/85
f 44/51/86 45/36/86 63/35/86
f 47/52/26 65/57/26 74/53/26
f 53/50/87 71/49/87 72/55/87
f 46/56/88 64/61/88 65/57/88
f 55/58/89 56/54/89 74/53/89
f 48/60/90 66/63/90 64/61/90
f 57/62/91 55/58/91 73/59/91
f 49/44/92 67/43/92 66/63/92
f 89/64/33 107/74/33 108/65/33
f 83/67/34 101/88/34 110/68/34
f 80/70/35 81/81/35 99/71/35
f 88/73/36 106/78/36 107/74/36
f 79/75/37 80/70/37 98/72/37
f 86/77/38 104/104/38 106/78/38
f 77/79/39 79/75/39 97/76/39
f 90/66/40 108/65/40 99/71/40
f 82/87/41 100/92/41 101/88/41
f 91/89/42 92/69/42 110/68/42
f 84/91/43 102/96/43 100/92/43
f 93/93/44 91/89/44 109/90/44
f 85/95/45 103/100/45 102/96/45
f 94/97/46 93/93/46 111/94/46
f 78/99/47 96/101/47 103/100/47
f 78/99/48 77/79/48 95/80/48
f 87/102/49 94/97/49 112/98/49
f 87/102/50 105/103/50 104/104/50
f 126/105/51 144/142/51 135/106/51
f 123/108/52 141/112/52 140/109/52
f 123/108/53 130/118/53 148/111/53
f 114/113/54 113/135/54 131/114/54
f 114/113/55 132/115/55 139/116/55
f 130/118/56 129/122/56 147/119/56
f 121/117/57 139/116/57 138/120/57
f 129/122/58 127/144/58 145/123/58
f 131/114/59 140/109/59 141/112/59
f 133/128/60 142/133/60 140/109/60
f 136/129/61 145/123/61 146/130/61
f 134/132/62 143/134/62 142/133/62
f 138/120/63 147/119/63 145/123/63
f 135/106/64 144/142/64 143/134/64
f 139/116/65 148/111/65 147/119/65
f 132/115/66 141/112/66 148/111/66
f 113/135/67 115/137/67 133/128/67
f 122/110/68 140/109/68 142/133/68
f 115/137/69 116/139/69 134/132/69
f 124/136/70 142/133/70 143/134/70
f 116/139/71 117/107/71 135/106/71
f 119/140/72 137/131/72 146/130/72
f 125/138/73 143/134/73 144/142/73
f 118/143/74 136/129/74 137/131/74
f 127/144/75 128/141/75 146/130/75
f 120/121/76 138/120/76 136/129/76
