# Blender v3.1.2 OBJ File: ''
# www.blender.org
mtllib Microphone.mtl
o Sphere
v 0.276265 1.615291 -0.329239
v 0.447006 1.249689 -0.532720
v 0.447005 0.797780 -0.532720
v 0.204805 0.432177 -0.244076
v 0.423262 1.615291 -0.074632
v 0.684852 1.249689 -0.120758
v 0.684852 0.797780 -0.120758
v 0.313779 0.432177 -0.055328
v 0.372210 1.615291 0.214896
v 0.602249 1.249689 0.347709
v 0.602249 0.797780 0.347709
v 0.275932 0.432177 0.159310
v 0.146997 1.615291 0.403872
v 0.237847 1.249689 0.653478
v 0.237847 0.797780 0.653478
v 0.108974 0.432177 0.299404
v -0.000000 1.754939 0.000000
v -0.146997 1.615291 0.403872
v -0.237847 1.249689 0.653478
v -0.237847 0.797780 0.653478
v -0.108974 0.432177 0.299404
v -0.372210 1.615291 0.214896
v -0.602249 1.249689 0.347709
v -0.602249 0.797780 0.347709
v -0.275932 0.432177 0.159310
v -0.423262 1.615291 -0.074632
v -0.684852 1.249689 -0.120758
v -0.684852 0.797780 -0.120758
v -0.313779 0.432177 -0.055328
v -0.276265 1.615291 -0.329239
v -0.447005 1.249689 -0.532720
v -0.447005 0.797780 -0.532720
v -0.204805 0.432177 -0.244076
v -0.000000 1.615291 -0.429791
v -0.000000 1.249689 -0.695417
v -0.000000 0.797780 -0.695417
v -0.000000 0.432177 -0.318619
v 0.110654 -1.218793 -0.131872
v 0.169531 -1.218793 -0.029893
v 0.149083 -1.218793 0.086073
v 0.058878 -1.218793 0.161765
v -0.058878 -1.218793 0.161765
v -0.149083 -1.218793 0.086073
v -0.169531 -1.218793 -0.029893
v -0.000000 -1.274727 0.000000
v -0.110654 -1.218793 -0.131872
v -0.000000 -1.218793 -0.172146
vt 0.666667 0.600000
vt 0.555555 0.400000
vt 0.666667 0.400000
vt 0.666667 0.800000
vt 0.611111 1.000000
vt 0.555555 0.800000
vt 0.555555 0.200000
vt 0.666667 0.200000
vt 0.555555 0.600000
vt 0.888889 0.200000
vt 1.000000 0.200000
vt 1.000000 0.200000
vt 0.000000 0.200000
vt 0.111111 0.200000
vt 0.111111 0.200000
vt 0.444444 0.400000
vt 0.500000 1.000000
vt 0.444444 0.800000
vt 0.444444 0.200000
vt 0.444444 0.600000
vt 0.222222 0.200000
vt 0.222222 0.200000
vt 0.333333 0.400000
vt 0.388889 1.000000
vt 0.333333 0.800000
vt 0.333333 0.200000
vt 0.333333 0.600000
vt 0.666667 0.200000
vt 0.222222 0.400000
vt 0.277778 1.000000
vt 0.222222 0.800000
vt 0.222222 0.600000
vt 0.333333 0.200000
vt 0.111111 0.400000
vt 0.166667 1.000000
vt 0.111111 0.800000
vt 0.111111 0.600000
vt 0.444444 0.200000
vt 0.000000 0.400000
vt 0.055556 1.000000
vt 0.000000 0.800000
vt 0.000000 0.600000
vt 0.555555 0.200000
vt 1.000000 0.600000
vt 0.888889 0.400000
vt 1.000000 0.400000
vt 1.000000 0.800000
vt 0.944445 1.000000
vt 0.888889 0.800000
vt 0.888889 0.600000
vt 0.777778 0.200000
vt 0.777778 0.200000
vt 0.777778 0.400000
vt 0.833333 1.000000
vt 0.777778 0.800000
vt 0.777778 0.600000
vt 0.888889 0.200000
vt 0.722222 1.000000
vt 0.611111 0.000000
vt 0.500000 0.000000
vt 0.388889 0.000000
vt 0.277778 0.000000
vt 0.166667 0.000000
vt 0.055556 0.000000
vt 0.000000 0.200000
vt 0.944445 0.000000
vt 0.833333 0.000000
vt 0.722222 0.000000
vn 0.3420 0.0000 -0.9397
vn 0.1118 0.9451 -0.3071
vn 0.2457 -0.6957 -0.6750
vn 0.2825 0.5638 -0.7761
vn -0.9814 -0.0831 0.1730
vn -0.6406 -0.0831 0.7634
vn 0.8660 0.0000 -0.5000
vn 0.2830 0.9451 -0.1634
vn 0.6221 -0.6957 -0.3592
vn 0.7152 0.5638 -0.4129
vn 0.0000 -0.0831 0.9965
vn 0.9848 -0.0000 0.1736
vn 0.3218 0.9451 0.0567
vn 0.7074 -0.6957 0.1247
vn 0.8133 0.5638 0.1434
vn 0.3408 -0.0831 -0.9364
vn 0.6428 0.0000 0.7660
vn 0.2101 0.9451 0.2503
vn 0.4617 -0.6957 0.5503
vn 0.5309 0.5638 0.6327
vn 0.6406 -0.0831 0.7634
vn 0.0000 0.0000 1.0000
vn 0.0000 0.9451 0.3268
vn 0.0000 -0.6957 0.7183
vn 0.0000 0.5638 0.8259
vn 0.9814 -0.0831 0.1730
vn -0.6428 0.0000 0.7660
vn -0.2101 0.9451 0.2503
vn -0.4617 -0.6957 0.5503
vn -0.5309 0.5638 0.6327
vn 0.8630 -0.0831 -0.4983
vn -0.9848 0.0000 0.1736
vn -0.3218 0.9451 0.0567
vn -0.7074 -0.6957 0.1247
vn -0.8133 0.5638 0.1434
vn -0.3408 -0.0831 -0.9364
vn -0.8660 0.0000 -0.5000
vn -0.2830 0.9451 -0.1634
vn -0.6221 -0.6957 -0.3592
vn -0.7152 0.5638 -0.4129
vn -0.8630 -0.0831 -0.4983
vn -0.3420 0.0000 -0.9397
vn -0.1118 0.9451 -0.3071
vn -0.2457 -0.6957 -0.6750
vn -0.2825 0.5638 -0.7761
vn 0.1118 -0.9451 -0.3071
vn 0.2830 -0.9451 -0.1634
vn 0.3218 -0.9451 0.0567
vn 0.2101 -0.9451 0.2503
vn 0.0000 -0.9451 0.3268
vn -0.2101 -0.9451 0.2503
vn -0.3218 -0.9451 0.0567
vn -0.2830 -0.9451 -0.1634
vn -0.1118 -0.9451 -0.3071
usemtl None
s off
f 35/1/1 3/2/1 36/3/1
f 34/4/2 17/5/2 1/6/2
f 36/3/3 4/7/3 37/8/3
f 35/1/4 1/6/4 2/9/4
f 29/10/5 43/11/5 25/12/5
f 25/13/6 42/14/6 21/15/6
f 2/9/7 7/16/7 3/2/7
f 1/6/8 17/17/8 5/18/8
f 4/7/9 7/16/9 8/19/9
f 1/6/10 6/20/10 2/9/10
f 21/15/11 41/21/11 16/22/11
f 6/20/12 11/23/12 7/16/12
f 5/18/13 17/24/13 9/25/13
f 7/16/14 12/26/14 8/19/14
f 5/18/15 10/27/15 6/20/15
f 4/7/16 47/28/16 37/8/16
f 10/27/17 15/29/17 11/23/17
f 9/25/18 17/30/18 13/31/18
f 12/26/19 15/29/19 16/22/19
f 10/27/20 13/31/20 14/32/20
f 12/26/21 41/21/21 40/33/21
f 14/32/22 20/34/22 15/29/22
f 13/31/23 17/35/23 18/36/23
f 15/29/24 21/15/24 16/22/24
f 13/31/25 19/37/25 14/32/25
f 12/26/26 39/38/26 8/19/26
f 19/37/27 24/39/27 20/34/27
f 18/36/28 17/40/28 22/41/28
f 21/15/29 24/39/29 25/13/29
f 18/36/30 23/42/30 19/37/30
f 8/19/31 38/43/31 4/7/31
f 23/44/32 28/45/32 24/46/32
f 22/47/33 17/48/33 26/49/33
f 24/46/34 29/10/34 25/12/34
f 23/44/35 26/49/35 27/50/35
f 37/8/36 46/51/36 33/52/36
f 27/50/37 32/53/37 28/45/37
f 26/49/38 17/54/38 30/55/38
f 28/45/39 33/52/39 29/10/39
f 27/50/40 30/55/40 31/56/40
f 29/10/41 46/51/41 44/57/41
f 31/56/42 36/3/42 32/53/42
f 30/55/43 17/58/43 34/4/43
f 32/53/44 37/8/44 33/52/44
f 30/55/45 35/1/45 31/56/45
f 45/59/46 47/28/46 38/43/46
f 45/60/47 38/43/47 39/38/47
f 45/61/48 39/38/48 40/33/48
f 45/62/49 40/33/49 41/21/49
f 45/63/50 41/21/50 42/14/50
f 45/64/51 42/14/51 43/65/51
f 45/66/52 43/11/52 44/57/52
f 45/67/53 44/57/53 46/51/53
f 45/68/54 46/51/54 47/28/54
f 35/1/1 2/9/1 3/2/1
f 36/3/3 3/2/3 4/7/3
f 35/1/4 34/4/4 1/6/4
f 29/10/5 44/57/5 43/11/5
f 25/13/6 43/65/6 42/14/6
f 2/9/7 6/20/7 7/16/7
f 4/7/9 3/2/9 7/16/9
f 1/6/10 5/18/10 6/20/10
f 21/15/11 42/14/11 41/21/11
f 6/20/12 10/27/12 11/23/12
f 7/16/14 11/23/14 12/26/14
f 5/18/15 9/25/15 10/27/15
f 4/7/16 38/43/16 47/28/16
f 10/27/17 14/32/17 15/29/17
f 12/26/19 11/23/19 15/29/19
f 10/27/20 9/25/20 13/31/20
f 12/26/21 16/22/21 41/21/21
f 14/32/22 19/37/22 20/34/22
f 15/29/24 20/34/24 21/15/24
f 13/31/25 18/36/25 19/37/25
f 12/26/26 40/33/26 39/38/26
f 19/37/27 23/42/27 24/39/27
f 21/15/29 20/34/29 24/39/29
f 18/36/30 22/41/30 23/42/30
f 8/19/31 39/38/31 38/43/31
f 23/44/32 27/50/32 28/45/32
f 24/46/34 28/45/34 29/10/34
f 23/44/35 22/47/35 26/49/35
f 37/8/36 47/28/36 46/51/36
f 27/50/37 31/56/37 32/53/37
f 28/45/39 32/53/39 33/52/39
f 27/50/40 26/49/40 30/55/40
f 29/10/41 33/52/41 46/51/41
f 31/56/42 35/1/42 36/3/42
f 32/53/44 36/3/44 37/8/44
f 30/55/45 34/4/45 35/1/45
