# Blender 3.1.2
# www.blender.org
mtllib Rocket.mtl
o Cube
v -0.701770 0.971644 0.000000
v -0.547762 0.626796 0.547762
v -0.520686 1.314758 0.000000
v -0.496226 0.971644 0.496226
v -0.368180 1.314758 -0.368180
v 0.000000 0.971644 0.701770
v 0.000000 1.314758 -0.520686
v 0.496226 0.971644 0.496226
v 0.368180 1.314758 -0.368180
v 0.701770 0.971644 0.000000
v 0.520686 1.314758 0.000000
v 0.496226 0.971644 -0.496226
v 0.368180 1.314758 0.368180
v 0.000000 0.971644 -0.701770
v 0.000000 1.314758 0.520686
v -0.496226 0.971644 -0.496226
v -0.368180 1.314758 0.368180
v 0.000000 1.692374 -0.000000
v -0.774653 0.626796 0.000000
v 0.000000 0.626796 0.774653
v 0.547762 0.626796 0.547762
v 0.774653 0.626796 0.000000
v 0.547762 0.626796 -0.547762
v 0.000000 0.626796 -0.774653
v -0.547762 0.626796 -0.547762
v -0.774653 -0.399231 0.000000
v -0.547762 -0.399231 -0.547762
v 0.000000 -0.399231 -0.774653
v 0.547762 -0.399231 -0.547762
v 0.774653 -0.399231 0.000000
v 0.547762 -0.399231 0.547762
v 0.000000 -0.399231 0.774653
v -0.547762 -0.399231 0.547762
v -0.725236 -0.648545 0.000000
v -0.512819 -0.648545 -0.512819
v 0.000000 -0.648545 -0.725236
v 0.512819 -0.648545 -0.512819
v 0.725236 -0.648545 0.000000
v 0.512819 -0.648545 0.512819
v 0.000000 -0.648545 0.725236
v -0.512819 -0.648545 0.512819
v -0.447473 -0.887563 -0.000000
v -0.316411 -0.887563 -0.316411
v 0.000000 -0.887563 -0.447473
v 0.316411 -0.887563 -0.316411
v 0.447473 -0.887563 -0.000000
v 0.316411 -0.887563 0.316411
v 0.000000 -0.887563 0.447473
v -0.316411 -0.887563 0.316411
v -0.323699 -0.809654 0.000000
v -0.228890 -0.809654 -0.228890
v 0.000000 -0.809654 -0.323699
v 0.228890 -0.809654 -0.228890
v 0.323699 -0.809654 0.000000
v 0.228890 -0.809654 0.228890
v 0.000000 -0.809654 0.323699
v -0.228890 -0.809654 0.228890
v 0.661207 0.626796 -0.273881
v 0.598998 0.971644 -0.248113
v 0.444433 1.314758 -0.184090
v 0.661207 -0.399231 -0.273881
v 0.619027 -0.648545 -0.256410
v 0.381942 -0.887563 -0.158206
v 0.276294 -0.809654 -0.114445
v 0.598998 0.971644 0.248113
v 0.661207 0.626796 0.273881
v 0.444433 1.314758 0.184090
v 0.661207 -0.399231 0.273881
v 0.619027 -0.648545 0.256410
v 0.381942 -0.887563 0.158206
v 0.276294 -0.809654 0.114445
v -0.444433 1.314758 -0.184090
v -0.661207 0.626796 -0.273881
v -0.598998 0.971644 -0.248113
v -0.661207 -0.399231 -0.273881
v -0.619027 -0.648545 -0.256410
v -0.381942 -0.887563 -0.158206
v -0.276294 -0.809654 -0.114445
v -0.598998 0.971644 0.248113
v -0.661207 0.626796 0.273881
v -0.444433 1.314758 0.184090
v -0.661207 -0.399231 0.273881
v -0.619027 -0.648545 0.256410
v -0.381942 -0.887563 0.158206
v -0.276294 -0.809654 0.114445
v -0.779648 -0.878741 -0.256410
v -0.673439 -0.878741 -0.512819
v 0.788268 -0.878741 0.256410
v 0.682060 -0.878741 0.512819
v -0.542562 -1.117759 -0.158206
v -0.477032 -1.117759 -0.316411
v 0.551183 -1.117759 0.158206
v 0.485652 -1.117759 0.316411
v -0.477031 -1.117759 0.316411
v -0.673439 -0.878741 0.512819
v 0.485652 -1.117759 -0.316411
v 0.682060 -0.878741 -0.512819
v 0.788268 -0.878741 -0.256410
v 0.551183 -1.117759 -0.158206
v -0.779648 -0.878741 0.256410
v -0.542562 -1.117759 0.158206
v -0.779648 -1.282611 -0.256410
v -0.673439 -1.282611 -0.512819
v 0.788268 -1.282611 0.256410
v 0.682060 -1.282611 0.512819
v -0.542562 -1.521630 -0.158206
v -0.477032 -1.521630 -0.316411
v 0.551183 -1.521630 0.158206
v 0.485652 -1.521630 0.316411
v -0.477031 -1.521630 0.316411
v -0.673439 -1.282611 0.512819
v 0.485652 -1.521630 -0.316411
v 0.682060 -1.282611 -0.512819
v 0.788268 -1.282611 -0.256410
v 0.551183 -1.521630 -0.158206
v -0.779648 -1.282611 0.256410
v -0.542562 -1.521630 0.158206
vn -0.3440 0.4383 -0.8304
vn -0.9068 0.1916 -0.3756
vn -0.5705 0.7866 -0.2363
vn 0.3440 0.4383 0.8304
vn 0.9068 0.1916 0.3756
vn -0.2363 0.7866 -0.5705
vn 0.8304 0.4383 0.3440
vn -0.3756 0.1916 -0.9068
vn 0.2363 0.7866 -0.5705
vn 0.8304 0.4383 -0.3440
vn 0.3756 0.1916 0.9068
vn 0.5705 0.7866 -0.2363
vn -0.3440 0.4383 0.8304
vn -0.3756 0.1916 0.9068
vn 0.5705 0.7866 0.2363
vn 0.3440 0.4383 -0.8304
vn 0.3827 -0.0000 0.9239
vn 0.2363 0.7866 0.5705
vn 0.3756 0.1916 -0.9068
vn -0.8304 0.4383 0.3440
vn -0.2363 0.7866 0.5705
vn -0.8304 0.4383 -0.3440
vn -0.9068 0.1916 0.3756
vn -0.5705 0.7866 0.2363
vn 0.9068 0.1916 -0.3756
vn -0.3764 -0.1801 -0.9088
vn -0.9239 -0.0000 -0.3827
vn 0.3827 -0.0000 -0.9239
vn -0.3827 -0.0000 0.9239
vn -0.3827 -0.0000 -0.9239
vn 0.9239 -0.0000 -0.3827
vn -0.9239 -0.0000 0.3827
vn 0.9239 -0.0000 0.3827
vn -0.6297 -0.7318 0.2608
vn -0.3764 -0.1801 0.9088
vn 0.9088 -0.1801 0.3764
vn 0.3764 -0.1801 -0.9088
vn -0.9088 -0.1801 -0.3764
vn -0.9088 -0.1801 0.3764
vn 0.3764 -0.1801 0.9088
vn 0.9088 -0.1801 -0.3764
vn -0.2155 -0.8264 0.5202
vn 0.2608 -0.7318 0.6297
vn 0.6297 -0.7318 -0.2608
vn -0.2608 -0.7318 -0.6297
vn -0.2608 -0.7318 0.6297
vn -0.2331 0.1627 -0.9587
vn 0.2608 -0.7318 -0.6297
vn -0.4415 -0.3246 -0.8365
vn -0.0000 -1.0000 -0.0000
vn 0.5202 -0.8264 0.2155
vn 0.5202 -0.8264 -0.2155
vn -0.2155 -0.8264 -0.5202
vn -0.5202 -0.8264 0.2155
vn 0.2155 -0.8264 0.5202
vn 0.2155 -0.8264 -0.5202
vn -0.5202 -0.8264 -0.2155
vn -0.7643 -0.5619 -0.3166
vn 0.6297 -0.7318 0.2608
vn -0.6297 -0.7318 -0.2608
vn -0.4415 -0.3246 0.8365
vn -0.7765 0.5418 -0.3216
vn 0.7643 0.5619 -0.3166
vn -0.2331 0.1627 0.9587
vn 0.7765 -0.5418 0.3216
vn -0.7643 -0.5619 0.3166
vn 0.4515 -0.3150 -0.8348
vn -0.7765 0.5418 0.3216
vn 0.2282 0.1677 -0.9591
vn 0.4515 -0.3150 0.8348
vn 0.7765 -0.5418 -0.3216
vn 0.7643 0.5619 0.3166
vn 0.2282 0.1677 0.9591
vn 0.7071 -0.0000 0.7071
vn -0.7071 -0.0000 0.7071
vn -0.7071 -0.0000 -0.7071
vn 0.7071 -0.0000 -0.7071
vt 0.250000 0.490000
vt 0.080294 0.419706
vt 0.250000 0.490000
vt 0.080294 0.419706
vt 0.419706 0.419706
vt 0.010000 0.250000
vt 0.490000 0.250000
vt 0.080294 0.080294
vt 0.419706 0.080294
vt 0.250000 0.010000
vt 0.250000 0.010000
vt 0.419706 0.080294
vt 0.080294 0.080294
vt 0.490000 0.250000
vt 0.010000 0.250000
vt 0.419706 0.419706
vt 0.080294 0.419706
vt 0.250000 0.250000
vt 0.250000 0.490000
vt 0.010000 0.250000
vt 0.080294 0.080294
vt 0.250000 0.010000
vt 0.419706 0.080294
vt 0.490000 0.250000
vt 0.419706 0.419706
vt 0.250000 0.490000
vt 0.419706 0.419706
vt 0.490000 0.250000
vt 0.419706 0.080294
vt 0.250000 0.010000
vt 0.080294 0.080294
vt 0.010000 0.250000
vt 0.080294 0.419706
vt 0.250000 0.490000
vt 0.419706 0.419706
vt 0.490000 0.250000
vt 0.419706 0.080294
vt 0.250000 0.010000
vt 0.080294 0.080294
vt 0.010000 0.250000
vt 0.080294 0.419706
vt 0.250000 0.490000
vt 0.419706 0.419706
vt 0.490000 0.250000
vt 0.419706 0.080294
vt 0.250000 0.010000
vt 0.080294 0.080294
vt 0.010000 0.250000
vt 0.080294 0.419706
vt 0.750000 0.490000
vt 0.250000 0.490000
vt 0.919706 0.419706
vt 0.419706 0.419706
vt 0.990000 0.250000
vt 0.490000 0.250000
vt 0.919706 0.080294
vt 0.419706 0.080294
vt 0.750000 0.010000
vt 0.250000 0.010000
vt 0.580294 0.080294
vt 0.080294 0.080294
vt 0.510000 0.250000
vt 0.010000 0.250000
vt 0.580294 0.419706
vt 0.080294 0.419706
vt 0.334853 0.045147
vt 0.334853 0.045147
vt 0.334853 0.045147
vt 0.334853 0.045147
vt 0.334853 0.045147
vt 0.334853 0.045147
vt 0.834853 0.045147
vt 0.334853 0.045147
vt 0.165147 0.045147
vt 0.165147 0.045147
vt 0.165147 0.045147
vt 0.165147 0.045147
vt 0.165147 0.045147
vt 0.165147 0.045147
vt 0.665147 0.045147
vt 0.165147 0.045147
vt 0.334853 0.454853
vt 0.334853 0.454853
vt 0.334853 0.454853
vt 0.334853 0.454853
vt 0.334853 0.454853
vt 0.334853 0.454853
vt 0.834853 0.454853
vt 0.334853 0.454853
vt 0.165147 0.454853
vt 0.165147 0.454853
vt 0.165147 0.454853
vt 0.165147 0.454853
vt 0.165147 0.454853
vt 0.165147 0.454853
vt 0.665147 0.454853
vt 0.165147 0.454853
vt 0.334853 0.454853
vt 0.419706 0.419706
vt 0.165147 0.045147
vt 0.080294 0.080294
vt 0.334853 0.454853
vt 0.419706 0.419706
vt 0.165147 0.045147
vt 0.080294 0.080294
vt 0.080294 0.419706
vt 0.080294 0.419706
vt 0.419706 0.080294
vt 0.419706 0.080294
vt 0.334853 0.045147
vt 0.334853 0.045147
vt 0.165147 0.454853
vt 0.165147 0.454853
vt 0.334853 0.454853
vt 0.419706 0.419706
vt 0.165147 0.045147
vt 0.080294 0.080294
vt 0.334853 0.454853
vt 0.419706 0.419706
vt 0.165147 0.045147
vt 0.080294 0.080294
vt 0.080294 0.419706
vt 0.080294 0.419706
vt 0.419706 0.080294
vt 0.419706 0.080294
vt 0.334853 0.045147
vt 0.334853 0.045147
vt 0.165147 0.454853
vt 0.165147 0.454853
s 0
usemtl Material
f 7/7/1 16/16/1 5/5/1
f 16/16/2 73/83/2 74/84/2
f 18/18/3 72/82/3 3/3/3
f 15/15/4 8/8/4 13/13/4
f 8/8/5 66/75/5 65/74/5
f 5/5/6 18/18/6 7/7/6
f 13/13/7 65/74/7 67/76/7
f 14/14/8 25/25/8 16/16/8
f 7/7/9 18/18/9 9/9/9
f 11/11/10 59/67/10 60/68/10
f 6/6/11 21/21/11 8/8/11
f 18/18/12 60/68/12 9/9/12
f 17/17/13 6/6/13 15/15/13
f 4/4/14 20/20/14 6/6/14
f 18/18/15 67/76/15 11/11/15
f 7/7/16 12/12/16 14/14/16
f 20/20/17 31/31/17 21/21/17
f 13/13/18 18/18/18 15/15/18
f 12/12/19 24/24/19 14/14/19
f 3/3/20 79/90/20 81/92/20
f 15/15/21 18/18/21 17/17/21
f 5/5/22 74/84/22 72/82/22
f 1/1/23 80/91/23 79/90/23
f 18/18/24 81/92/24 17/17/24
f 10/10/25 58/66/25 59/67/25
f 28/28/26 35/35/26 27/27/26
f 25/25/27 75/85/27 73/83/27
f 23/23/28 28/28/28 24/24/28
f 2/2/29 32/32/29 20/20/29
f 24/24/30 27/27/30 25/25/30
f 22/22/31 61/69/31 58/66/31
f 19/19/32 82/93/32 80/91/32
f 21/21/33 68/77/33 66/75/33
f 83/94/34 42/42/34 84/95/34
f 32/32/35 41/41/35 40/40/35
f 68/77/36 39/39/36 69/78/36
f 29/29/37 36/36/37 28/28/37
f 75/85/38 35/35/38 76/86/38
f 82/93/39 34/34/39 83/94/39
f 32/32/40 39/39/40 31/31/40
f 61/69/41 38/38/41 62/70/41
f 45/45/42 52/55/42 44/44/42
f 40/40/43 47/47/43 39/39/43
f 62/70/44 46/46/44 63/71/44
f 36/36/45 43/43/45 35/35/45
f 41/41/46 48/48/46 40/40/46
f 84/95/47 100/112/47 83/94/47
f 37/37/48 44/44/48 36/36/48
f 45/45/49 97/109/49 96/108/49
f 71/80/50 56/62/50 85/96/50
f 77/87/51 51/53/51 78/89/51
f 84/95/52 50/51/52 85/97/52
f 48/48/53 55/61/53 47/47/53
f 63/71/54 54/59/54 64/73/54
f 44/44/55 51/53/55 43/43/55
f 48/48/56 57/65/56 56/63/56
f 70/79/57 55/61/57 71/81/57
f 63/71/54 53/57/54 45/45/54
f 70/79/58 93/105/58 47/47/58
f 61/69/41 37/37/41 29/29/41
f 58/66/31 29/29/31 23/23/31
f 12/12/25 58/66/25 23/23/25
f 9/9/10 59/67/10 12/12/10
f 70/79/57 54/59/57 46/46/57
f 69/78/59 46/46/59 38/38/59
f 68/77/36 38/38/36 30/30/36
f 66/75/33 30/30/33 22/22/33
f 11/11/7 65/74/7 10/10/7
f 10/10/5 66/75/5 22/22/5
f 77/87/51 50/51/51 42/42/51
f 76/86/60 42/42/60 34/34/60
f 75/85/38 34/34/38 26/26/38
f 73/83/27 26/26/27 19/19/27
f 3/3/22 74/84/22 1/1/22
f 1/1/2 73/83/2 19/19/2
f 84/95/52 57/65/52 49/49/52
f 82/93/39 41/41/39 33/33/39
f 47/47/61 89/101/61 39/39/61
f 80/91/32 33/33/32 2/2/32
f 4/4/23 80/91/23 2/2/23
f 17/17/20 79/90/20 4/4/20
f 90/102/33 107/119/33 91/103/33
f 96/108/32 115/127/32 99/111/32
f 89/101/33 104/116/33 88/100/33
f 98/110/31 113/125/31 97/109/31
f 76/86/62 87/99/62 86/98/62
f 62/70/63 97/109/63 37/37/63
f 77/87/64 86/98/64 90/102/64
f 77/87/65 91/103/65 43/43/65
f 63/71/66 96/108/66 99/111/66
f 43/43/67 87/99/67 35/35/67
f 83/94/68 95/107/68 41/41/68
f 70/79/69 88/100/69 92/104/69
f 49/49/70 95/107/70 94/106/70
f 84/95/71 94/106/71 101/113/71
f 69/78/72 89/101/72 88/100/72
f 63/71/73 98/110/73 62/70/73
f 104/116/59 109/121/59 108/120/59
f 102/114/60 107/119/60 106/118/60
f 114/126/44 112/124/44 113/125/44
f 116/128/34 110/122/34 111/123/34
f 99/111/17 114/126/17 98/110/17
f 92/104/27 109/121/27 93/105/27
f 92/104/28 104/116/28 108/120/28
f 94/106/74 111/123/74 110/122/74
f 90/102/29 102/114/29 106/118/29
f 93/105/75 105/117/75 89/101/75
f 100/112/32 111/123/32 95/107/32
f 96/108/76 113/125/76 112/124/76
f 94/106/31 117/129/31 101/113/31
f 91/103/77 103/115/77 87/99/77
f 87/99/27 102/114/27 86/98/27
f 101/113/30 116/128/30 100/112/30
f 7/7/1 14/14/1 16/16/1
f 16/16/2 25/25/2 73/83/2
f 18/18/3 5/5/3 72/82/3
f 15/15/4 6/6/4 8/8/4
f 8/8/5 21/21/5 66/75/5
f 13/13/7 8/8/7 65/74/7
f 14/14/8 24/24/8 25/25/8
f 11/11/10 10/10/10 59/67/10
f 6/6/11 20/20/11 21/21/11
f 18/18/12 11/11/12 60/68/12
f 17/17/13 4/4/13 6/6/13
f 4/4/14 2/2/14 20/20/14
f 18/18/15 13/13/15 67/76/15
f 7/7/16 9/9/16 12/12/16
f 20/20/17 32/32/17 31/31/17
f 12/12/19 23/23/19 24/24/19
f 3/3/20 1/1/20 79/90/20
f 5/5/22 16/16/22 74/84/22
f 1/1/23 19/19/23 80/91/23
f 18/18/24 3/3/24 81/92/24
f 10/10/25 22/22/25 58/66/25
f 28/28/26 36/36/26 35/35/26
f 25/25/27 27/27/27 75/85/27
f 23/23/28 29/29/28 28/28/28
f 2/2/29 33/33/29 32/32/29
f 24/24/30 28/28/30 27/27/30
f 22/22/31 30/30/31 61/69/31
f 19/19/32 26/26/32 82/93/32
f 21/21/33 31/31/33 68/77/33
f 83/94/34 34/34/34 42/42/34
f 32/32/35 33/33/35 41/41/35
f 68/77/36 31/31/36 39/39/36
f 29/29/37 37/37/37 36/36/37
f 75/85/38 27/27/38 35/35/38
f 82/93/39 26/26/39 34/34/39
f 32/32/40 40/40/40 39/39/40
f 61/69/41 30/30/41 38/38/41
f 45/45/42 53/57/42 52/55/42
f 40/40/43 48/48/43 47/47/43
f 62/70/44 38/38/44 46/46/44
f 36/36/45 44/44/45 43/43/45
f 41/41/46 49/49/46 48/48/46
f 84/95/47 101/113/47 100/112/47
f 37/37/48 45/45/48 44/44/48
f 45/45/49 37/37/49 97/109/49
f 85/96/50 50/50/50 78/88/50
f 78/88/50 51/52/50 52/54/50
f 52/54/50 53/56/50 64/72/50
f 64/72/50 54/58/50 71/80/50
f 71/80/50 55/60/50 56/62/50
f 56/62/50 57/64/50 85/96/50
f 85/96/50 78/88/50 64/72/50
f 78/88/50 52/54/50 64/72/50
f 64/72/50 71/80/50 85/96/50
f 77/87/51 43/43/51 51/53/51
f 84/95/52 42/42/52 50/51/52
f 48/48/53 56/63/53 55/61/53
f 63/71/54 46/46/54 54/59/54
f 44/44/55 52/55/55 51/53/55
f 48/48/56 49/49/56 57/65/56
f 70/79/57 47/47/57 55/61/57
f 63/71/54 64/73/54 53/57/54
f 70/79/58 92/104/58 93/105/58
f 61/69/41 62/70/41 37/37/41
f 58/66/31 61/69/31 29/29/31
f 12/12/25 59/67/25 58/66/25
f 9/9/10 60/68/10 59/67/10
f 70/79/57 71/81/57 54/59/57
f 69/78/59 70/79/59 46/46/59
f 68/77/36 69/78/36 38/38/36
f 66/75/33 68/77/33 30/30/33
f 11/11/7 67/76/7 65/74/7
f 10/10/5 65/74/5 66/75/5
f 77/87/51 78/89/51 50/51/51
f 76/86/60 77/87/60 42/42/60
f 75/85/38 76/86/38 34/34/38
f 73/83/27 75/85/27 26/26/27
f 3/3/22 72/82/22 74/84/22
f 1/1/2 74/84/2 73/83/2
f 84/95/52 85/97/52 57/65/52
f 82/93/39 83/94/39 41/41/39
f 47/47/61 93/105/61 89/101/61
f 80/91/32 82/93/32 33/33/32
f 4/4/23 79/90/23 80/91/23
f 17/17/20 81/92/20 79/90/20
f 90/102/33 106/118/33 107/119/33
f 96/108/32 112/124/32 115/127/32
f 89/101/33 105/117/33 104/116/33
f 98/110/31 114/126/31 113/125/31
f 76/86/62 35/35/62 87/99/62
f 62/70/63 98/110/63 97/109/63
f 77/87/64 76/86/64 86/98/64
f 77/87/65 90/102/65 91/103/65
f 63/71/66 45/45/66 96/108/66
f 43/43/67 91/103/67 87/99/67
f 83/94/68 100/112/68 95/107/68
f 70/79/69 69/78/69 88/100/69
f 49/49/70 41/41/70 95/107/70
f 84/95/71 49/49/71 94/106/71
f 69/78/72 39/39/72 89/101/72
f 63/71/73 99/111/73 98/110/73
f 104/116/59 105/117/59 109/121/59
f 102/114/60 103/115/60 107/119/60
f 114/126/44 115/127/44 112/124/44
f 116/128/34 117/129/34 110/122/34
f 99/111/17 115/127/17 114/126/17
f 92/104/27 108/120/27 109/121/27
f 92/104/28 88/100/28 104/116/28
f 94/106/74 95/107/74 111/123/74
f 90/102/29 86/98/29 102/114/29
f 93/105/75 109/121/75 105/117/75
f 100/112/32 116/128/32 111/123/32
f 96/108/76 97/109/76 113/125/76
f 94/106/31 110/122/31 117/129/31
f 91/103/77 107/119/77 103/115/77
f 87/99/27 103/115/27 102/114/27
f 101/113/30 117/129/30 116/128/30
